<!DOCTYPE svg PUBLIC "-//W3C//DTD SVG 1.1//EN" "http://www.w3.org/Graphics/SVG/1.1/DTD/svg11.dtd">
<svg width="6000" height="6000" 
  xmlns="http://www.w3.org/2000/svg"
  xmlns:xlink="http://www.w3.org/1999/xlink">

<defs>
  <g id="func_box">
    <line x1="0" y1="15" x2="30" y2="15" stroke-width="1" stroke="#000000"/>
    <rect x="30" width="300" height="30" fill="#eeeeee" stroke="#000000"/>
  </g>
  <g id="func_box2">
    <use xlink:href="#func_box" x="0" y="0"/>
    <use xlink:href="#func_box" x="0" y="30"/>
  </g>
  <g id="func_box4">
    <use xlink:href="#func_box2" x="0" y="0"/>
    <use xlink:href="#func_box2" x="0" y="60"/>
  </g>
  <g id="func_box6">
    <use xlink:href="#func_box2" x="0" y="0"/>
    <use xlink:href="#func_box4" x="0" y="60"/>
  </g>
  <g id="func_box8">
    <use xlink:href="#func_box4" x="0" y="0"/>
    <use xlink:href="#func_box4" x="0" y="120"/>
  </g>
  <g id="func_box16">
    <use xlink:href="#func_box8" x="0" y="0"/>
    <use xlink:href="#func_box8" x="0" y="240"/>
  </g>
  <g id="func_2box">
    <line x1="0" y1="30" x2="30" y2="30" stroke-width="1" stroke="#000000"/>
    <rect x="30" width="300" height="60" fill="#eeeeee" stroke="#000000"/>
  </g>
  <g id="func_3box">
    <line x1="0" y1="45" x2="30" y2="45" stroke-width="1" stroke="#000000"/>
    <rect x="30" width="300" height="90" fill="#eeeeee" stroke="#000000"/>
  </g>
  <g id="func_4box">
    <line x1="0" y1="65" x2="30" y2="65" stroke-width="1" stroke="#000000"/>
    <rect x="30" width="300" height="120" fill="#eeeeee" stroke="#000000"/>
  </g>
  

  
  <g id="ele_arithmetic">
    <text x="10" y="15">arithmetic</text>
    <line x1="0" y1="15" x2="100" y2="15" stroke="#000000"/>
    <line x1="30" y1="15" x2="30" y2="200" stroke="#000000"/>
    <use xlink:href="#func_box2" x="30" y="30"/>
    <text x="65" y="165">(**|pow &amp; tersons)</text>
    <text x="65" y="195">(log &amp; tersons)</text>
  </g>
  


  
  
 

  
  <g id="arithmatic_func">
    <use xlink:href="#func_4box" x="0" y="0"/>
    <text y="15">
      <tspan x="35" fill="blue">Arithmatic Function</tspan>
      <tspan x="35" dy="20">Syntax: (</tspan><tspan fill="green">xxx</tspan><tspan>[!] &amp; tsrs)</tspan>
      <tspan x="35" dy="20" fill="green">xxx</tspan><tspan>=add,minus,mul,div</tspan>
      <tspan x="35" dy="20">Use default 0 to first parameter when </tspan> 
      <tspan x="35" dy="20">has only one parameter for add and </tspan>
      <tspan x="35" dy="20">minus. For mul and div it is 1.</tspan>
    </text>
  </g>
  
  <g id="common_func">
    <text x="10" y="15">Common Function</text>
    <line x1="0" y1="15" x2="100" y2="15" stroke="#000000"/>
    <line x1="30" y1="15" x2="30" y2="200" stroke="#000000"/>
    <use xlink:href="#func_box6" x="30" y="30"/>
    <text x="65" y="45">(abs[!] tsr)</text>
    <text x="65" y="75">(ceil[!] tsr [bound-tsr=1])</text>
    <text x="65" y="105">(floor[!] tsr [bound-tsr=1])</text>
  </g>
  
  <g id="compare_func">
    <use xlink:href="#func_2box" x="0" y="30"/>
    <text>
      <tspan x="35" y="45" fill="blue">Compare Function</tspan>
      <tspan x="55" dy="20">Syntax: (</tspan><tspan fill="green">xxx</tspan><tspan> &amp; tsrs)</tspan>
      <tspan x="35" dy="20" fill="green">xxx</tspan><tspan>=ne,le,lt,ge,gt</tspan>
    </text>
    <use xlink:href="#func_box" x="0" y="90"/>
    <text x="35" y="105">(ne tsrA tsrB)</text>
    <use xlink:href="#func_box" x="0" y="120"/>
    <text x="35" y="135">(cmp tsrA tsrB)</text>
  </g>
  
  <g id="expoent_func">
    <use xlink:href="#func_2box" x="0" y="30"/>
    <text>
      <tspan x="35" y="45" fill="blue">Exponent Function</tspan>
      <tspan x="55" dy="20">Syntax: (</tspan><tspan fill="green">xxx</tspan><tspan>[!] tsr)</tspan>
      <tspan x="35" dy="20" fill="green">xxx</tspan><tspan>=sqrt,cbrt,log,log10,ln,logistic</tspan>
    </text>
    <use xlink:href="#func_box" x="0" y="90"/>
    <text x="35" y="105">(pow[!] tsr &amp; exponent-num)</text>
  </g>
  
  <g id="argular_func">
    <use xlink:href="#func_2box" x="0" y="30"/>
    <text y="45">
      <tspan x="35" fill="blue">Argular Function</tspan>
      <tspan x="55" dy="20">Syntax: (</tspan><tspan fill="green">xxx</tspan><tspan>[!] tsr)</tspan>
      <tspan x="35" dy="20" fill="green">xxx</tspan><tspan>=sin,cos,tan,asin,acos,atan,tanh,cosh</tspan>
    </text>
  </g>
  
  <g id="statistic_func">
    <use xlink:href="#func_2box" x="0" y="30"/>
    <text y="45">
      <tspan x="35" fill="blue">Statistic Function</tspan>
      <tspan x="55" dy="20">Syntax: (</tspan><tspan fill="green">xxx</tspan><tspan>[!] &amp; tsrs)</tspan>
      <tspan x="35" dy="20" fill="green">xxx</tspan><tspan>=min,max,sum,prod,mean,sd</tspan>
    </text>
  </g>
  
  <g id="ele_by">
    <text x="10" y="15">Element Wise</text>
    <line x1="0" y1="15" x2="100" y2="15" stroke="#000000"/>
    <line x1="30" y1="15" x2="30" y2="900" stroke="#000000"/>
    <use xlink:href="#arithmatic_func" x="30" y="30"/>
    <use xlink:href="#compare_func" x="30" y="140"/>
    <use xlink:href="#expoent_func" x="30" y="280"/>
    <use xlink:href="#argular_func" x="30" y="390"/>
    <use xlink:href="#statistic_func" x="30" y="450"/>
    <use xlink:href="#common_func" x="30" y="600"/>
  </g>
  
  <g id="decomp_func">
    <use xlink:href="#func_2box" x="0" y="30"/>
    <text y="45">
      <tspan x="35" fill="blue">Decomp Function</tspan>
      <tspan x="55" dy="20">Syntax: (decomp-</tspan><tspan fill="green">xxx</tspan><tspan> tsr)</tspan>
      <tspan x="35" dy="20" fill="green">xxx</tspan><tspan>=cholesky,eigenvalue,lu,qr,svd</tspan>
    </text>
  </g>
  
  <g id="matrix">
    <text x="10" y="15">Matrix</text>
    <line x1="0" y1="15" x2="100" y2="15" stroke="#000000"/>
    <line x1="30" y1="15" x2="30" y2="900" stroke="#000000"/>
    <use xlink:href="#matrix_basic" x="30" y="30"/>
    <use xlink:href="#decomp_func" x="30" y="310"/>
  </g>

</defs>

  <use xlink:href="#ele_by" x="10" y="0"/>
   <use xlink:href="#matrix" x="400" y="0"/>

 

</svg>